<svg width="109" height="35" viewBox="0 0 109 35" fill="none" xmlns="http://www.w3.org/2000/svg">
<g clip-path="url(#clip0_204_438)">
<path d="M57.4459 9.04254C57.4459 10.2678 56.4584 11.2548 55.2325 11.2548C54.0066 11.2548 53.0191 10.2678 53.0191 9.04254C53.0191 7.81732 53.9726 6.83033 55.2325 6.83033C56.4924 6.86436 57.4459 7.85135 57.4459 9.04254ZM48.32 13.501C48.32 13.7052 48.32 14.0455 48.32 14.0455C48.32 14.0455 47.2644 12.6842 45.017 12.6842C41.3053 12.6842 38.4109 15.509 38.4109 19.4229C38.4109 23.3028 41.2712 26.1617 45.017 26.1617C47.2984 26.1617 48.32 24.7663 48.32 24.7663V25.3448C48.32 25.6171 48.5243 25.8213 48.7967 25.8213H51.5549V13.0245C51.5549 13.0245 49.0351 13.0245 48.7967 13.0245C48.5243 13.0245 48.32 13.2628 48.32 13.501ZM48.32 21.7032C47.8092 22.452 46.7877 23.0986 45.5618 23.0986C43.3825 23.0986 41.7139 21.7372 41.7139 19.4229C41.7139 17.1086 43.3825 15.7472 45.5618 15.7472C46.7536 15.7472 47.8433 16.4279 48.32 17.1426V21.7032ZM53.598 13.0245H56.867V25.8213H53.598V13.0245ZM102.428 12.6842C100.181 12.6842 99.1254 14.0455 99.1254 14.0455V6.86436H95.8564V25.8213C95.8564 25.8213 98.3762 25.8213 98.6146 25.8213C98.887 25.8213 99.0913 25.5831 99.0913 25.3448V24.7663C99.0913 24.7663 100.147 26.1617 102.394 26.1617C106.106 26.1617 109 23.3028 109 19.4229C109 15.543 106.106 12.6842 102.428 12.6842ZM101.884 23.0646C100.624 23.0646 99.6361 22.4179 99.1254 21.6692V17.1086C99.6361 16.4279 100.726 15.7132 101.884 15.7132C104.063 15.7132 105.731 17.0746 105.731 19.3889C105.731 21.7032 104.063 23.0646 101.884 23.0646ZM94.1538 18.2317V25.8554H90.8848V18.6061C90.8848 16.496 90.2038 15.6451 88.365 15.6451C87.3775 15.6451 86.3559 16.1557 85.7089 16.9044V25.8213H82.4399V13.0245H85.0279C85.3003 13.0245 85.5046 13.2628 85.5046 13.501V14.0455C86.4581 13.0586 87.718 12.6842 88.9779 12.6842C90.4081 12.6842 91.5999 13.0926 92.5533 13.9094C93.7111 14.8624 94.1538 16.0876 94.1538 18.2317ZM74.5059 12.6842C72.2584 12.6842 71.2028 14.0455 71.2028 14.0455V6.86436H67.9339V25.8213C67.9339 25.8213 70.4537 25.8213 70.6921 25.8213C70.9645 25.8213 71.1688 25.5831 71.1688 25.3448V24.7663C71.1688 24.7663 72.2244 26.1617 74.4718 26.1617C78.1835 26.1617 81.0779 23.3028 81.0779 19.4229C81.1119 15.543 78.2175 12.6842 74.5059 12.6842ZM73.961 23.0646C72.7011 23.0646 71.7136 22.4179 71.2028 21.6692V17.1086C71.7136 16.4279 72.8033 15.7132 73.961 15.7132C76.1404 15.7132 77.8089 17.0746 77.8089 19.3889C77.8089 21.7032 76.1404 23.0646 73.961 23.0646ZM65.1076 12.6842C66.0951 12.6842 66.6058 12.8544 66.6058 12.8544V15.8834C66.6058 15.8834 63.8817 14.9645 62.1791 16.9044V25.8554H58.9101V13.0245C58.9101 13.0245 61.43 13.0245 61.6683 13.0245C61.9407 13.0245 62.145 13.2628 62.145 13.501V14.0455C62.758 13.3308 64.086 12.6842 65.1076 12.6842ZM31.1578 24.6642C30.9876 24.2558 30.8173 23.8133 30.6471 23.4389C30.3747 22.8263 30.1022 22.2477 29.8639 21.7032L29.8298 21.6692C27.4802 16.5641 24.9604 11.3909 22.3044 6.28579L22.2022 6.08158C21.9298 5.57107 21.6574 5.02653 21.385 4.48198C21.0444 3.86937 20.7039 3.22272 20.1591 2.61011C19.0694 1.24875 17.5031 0.5 15.8345 0.5C14.1319 0.5 12.5996 1.24875 11.4759 2.54204C10.9651 3.15465 10.5905 3.8013 10.25 4.41391C9.97759 4.95846 9.70518 5.503 9.43276 6.01351L9.33061 6.21772C6.70861 11.3228 4.15472 16.496 1.80514 21.6011L1.77109 21.6692C1.53273 22.2137 1.26032 22.7923 0.9879 23.4049C0.817641 23.7793 0.647382 24.1877 0.477122 24.6301C0.0344481 25.8894 -0.101759 27.0806 0.0685 28.3058C0.44307 30.8584 2.14566 33.0025 4.49524 33.9555C5.38059 34.3298 6.29999 34.5 7.25344 34.5C7.52586 34.5 7.86638 34.466 8.13879 34.4319C9.2625 34.2958 10.4203 33.9214 11.544 33.2748C12.9401 32.492 14.2681 31.3689 15.7664 29.7352C17.2647 31.3689 18.6268 32.492 19.9888 33.2748C21.1126 33.9214 22.2703 34.2958 23.394 34.4319C23.6664 34.466 24.007 34.5 24.2794 34.5C25.2328 34.5 26.1863 34.3298 27.0376 33.9555C29.4212 33.0025 31.0897 30.8243 31.4643 28.3058C31.7367 27.1146 31.6005 25.9234 31.1578 24.6642ZM15.8005 26.4339C13.9617 24.1196 12.7698 21.9414 12.3612 20.1036C12.191 19.3208 12.1569 18.6401 12.2591 18.0275C12.3272 17.483 12.5315 17.0065 12.8039 16.5981C13.4509 15.6792 14.5405 15.1006 15.8005 15.1006C17.0604 15.1006 18.1841 15.6451 18.797 16.5981C19.0694 17.0065 19.2737 17.483 19.3419 18.0275C19.444 18.6401 19.41 19.3549 19.2397 20.1036C18.8311 21.9074 17.6393 24.0856 15.8005 26.4339ZM29.3872 28.0335C29.1488 29.8033 27.957 31.3348 26.2884 32.0155C25.4712 32.3559 24.5858 32.458 23.7005 32.3559C22.8492 32.2538 21.9979 31.9815 21.1125 31.471C19.8867 30.7903 18.6608 29.7352 17.2306 28.1697C19.4781 25.4129 20.8401 22.8944 21.3509 20.6481C21.5893 19.5931 21.6233 18.6401 21.5212 17.7553C21.385 16.9044 21.0785 16.1216 20.6018 15.4409C19.5462 13.9094 17.7755 13.0245 15.8005 13.0245C13.8255 13.0245 12.0548 13.9434 10.9991 15.4409C10.5224 16.1216 10.216 16.9044 10.0797 17.7553C9.94354 18.6401 9.97759 19.6271 10.25 20.6481C10.7608 22.8944 12.1569 25.4469 14.3703 28.2037C12.9742 29.7693 11.7142 30.8243 10.4884 31.505C9.60302 32.0155 8.75172 32.2878 7.90043 32.3899C6.98103 32.492 6.09568 32.3559 5.31249 32.0495C3.64395 31.3689 2.45213 29.8373 2.21377 28.0676C2.11161 27.2167 2.17972 26.3659 2.52023 25.4129C2.62239 25.0726 2.79265 24.7322 2.96291 24.3238C3.20127 23.7793 3.47369 23.2007 3.7461 22.6221L3.78015 22.5541C6.12973 17.483 8.64957 12.3098 11.2716 7.27277L11.3737 7.06857C11.6461 6.55806 11.9185 6.01351 12.191 5.503C12.4634 4.95846 12.7698 4.44795 13.1444 4.00551C13.8595 3.18869 14.813 2.74625 15.8686 2.74625C16.9242 2.74625 17.8776 3.18869 18.5927 4.00551C18.9673 4.44795 19.2738 4.95846 19.5462 5.503C19.8186 6.01351 20.091 6.55806 20.3634 7.06857L20.4656 7.27277C23.0535 12.3438 25.5733 17.517 27.9229 22.5881V22.6221C28.1953 23.1667 28.4337 23.7793 28.7061 24.3238C28.8764 24.7322 29.0466 25.0726 29.1488 25.4129C29.4212 26.2978 29.5234 27.1486 29.3872 28.0335Z" fill="#FF5A5F"/>
</g>
<defs>
<clipPath id="clip0_204_438">
<rect width="109" height="34" fill="white" transform="translate(0 0.5)"/>
</clipPath>
</defs>
</svg>
